<svg width="39" height="39" viewBox="0 0 39 39" fill="none" xmlns="http://www.w3.org/2000/svg">
<path d="M1 1V0H0V1H1ZM36.7655 18.8827L36.0583 19.5898L36.7655 18.8827ZM18.8827 36.7655L19.5898 36.0583L18.8827 36.7655ZM19.1914 1.30864L19.8985 0.601529V0.601529L19.1914 1.30864ZM1.30864 19.1914L0.601529 19.8985H0.601529L1.30864 19.1914ZM10.7245 15.1192C11.938 16.3327 13.9056 16.3327 15.1192 15.1192L13.7049 13.705C13.2724 14.1375 12.5712 14.1375 12.1387 13.705L10.7245 15.1192ZM15.1192 15.1192C16.3327 13.9056 16.3327 11.9381 15.1192 10.7245L13.7049 12.1387C14.1374 12.5712 14.1374 13.2725 13.7049 13.705L15.1192 15.1192ZM15.1192 10.7245C13.9056 9.51095 11.938 9.51095 10.7245 10.7245L12.1387 12.1387C12.5712 11.7062 13.2724 11.7062 13.7049 12.1387L15.1192 10.7245ZM10.7245 10.7245C9.51093 11.9381 9.51093 13.9056 10.7245 15.1192L12.1387 13.705C11.7062 13.2725 11.7062 12.5712 12.1387 12.1387L10.7245 10.7245ZM2 18.4462V1H0V18.4462H2ZM1 2H18.4462V0H1V2ZM18.4843 2.01574L36.0583 19.5898L37.4726 18.1756L19.8985 0.601529L18.4843 2.01574ZM36.0583 19.5898C37.3139 20.8454 37.3139 22.881 36.0583 24.1365L37.4726 25.5507C39.5091 23.5142 39.5091 20.2122 37.4726 18.1756L36.0583 19.5898ZM36.0583 24.1365L24.1365 36.0583L25.5507 37.4726L37.4726 25.5507L36.0583 24.1365ZM24.1365 36.0583C22.881 37.3139 20.8454 37.3139 19.5898 36.0583L18.1756 37.4726C20.2122 39.5091 23.5142 39.5091 25.5507 37.4726L24.1365 36.0583ZM19.5898 36.0583L2.01574 18.4843L0.601529 19.8985L18.1756 37.4726L19.5898 36.0583ZM18.4462 2C18.4605 2 18.4742 2.00566 18.4843 2.01574L19.8985 0.601529C19.5133 0.216376 18.9909 0 18.4462 0V2ZM0 18.4462C0 18.9909 0.216375 19.5133 0.601529 19.8985L2.01574 18.4843C2.00566 18.4742 2 18.4605 2 18.4462H0Z" fill="white"/>
</svg>
