<svg width="40" height="39" viewBox="0 0 40 39" fill="none" xmlns="http://www.w3.org/2000/svg">
<path d="M23.0211 15.0788L22.0779 14.7465L21.6086 16.0788H23.0211V15.0788ZM24.5589 1.22009L24.1313 2.12403V2.12403L24.5589 1.22009ZM21.9021 1.72777L22.6433 2.39912L21.9021 1.72777ZM37.9638 17.5353L36.9818 17.3466L37.9638 17.5353ZM34.3604 36.289L35.3424 36.4777L34.3604 36.289ZM26.8214 4.29074L25.8782 3.95848V3.95848L26.8214 4.29074ZM25.7171 1.76804L26.1447 0.864103L26.1447 0.864103L25.7171 1.76804ZM0 35.9162C0 36.4685 0.447715 36.9162 1 36.9162C1.55228 36.9162 2 36.4685 2 35.9162H0ZM2 17.1625C2 16.6102 1.55228 16.1625 1 16.1625C0.447715 16.1625 0 16.6102 0 17.1625H2ZM8.80844 15.8496V35.9162H10.8084V15.8496H8.80844ZM12.0105 39H32.1938V37H12.0105V39ZM35.3424 36.4777L38.9459 17.724L36.9818 17.3466L33.3784 36.1003L35.3424 36.4777ZM35.7973 14.0788H23.0211V16.0788H35.7973V14.0788ZM23.9643 15.411L27.7645 4.62299L25.8782 3.95848L22.0779 14.7465L23.9643 15.411ZM26.1447 0.864103L24.9866 0.31616L24.1313 2.12403L25.2894 2.67197L26.1447 0.864103ZM21.161 1.05642L9.59744 13.8221L11.0797 15.1648L22.6433 2.39912L21.161 1.05642ZM24.9866 0.316161C23.696 -0.29446 22.1229 -0.00544286 21.161 1.05642L22.6433 2.39912C22.9966 2.00903 23.6143 1.87943 24.1313 2.12403L24.9866 0.316161ZM38.9459 17.724C39.3227 15.7627 37.7306 14.0788 35.7973 14.0788V16.0788C36.6117 16.0788 37.0965 16.7496 36.9818 17.3466L38.9459 17.724ZM32.1938 39C33.699 39 35.0545 37.9763 35.3424 36.4777L33.3784 36.1003C33.2856 36.5833 32.8172 37 32.1938 37V39ZM8.80844 35.9162C8.80844 37.6707 10.2948 39 12.0105 39V37C11.2939 37 10.8084 36.4635 10.8084 35.9162H8.80844ZM27.7645 4.62299C28.2917 3.12657 27.5594 1.53341 26.1447 0.864103L25.2894 2.67197C25.8351 2.93017 26.0441 3.48738 25.8782 3.95848L27.7645 4.62299ZM10.8084 15.8496C10.8084 15.6069 10.8997 15.3636 11.0797 15.1648L9.59744 13.8221C9.09324 14.3788 8.80844 15.0974 8.80844 15.8496H10.8084ZM2 35.9162V17.1625H0V35.9162H2Z" fill="white"/>
</svg>
